<?xml version="1.0" standalone="no"?>
<!DOCTYPE svg PUBLIC "-//W3C//DTD SVG 1.1//EN" "http://www.w3.org/Graphics/SVG/1.1/DTD/svg11.dtd" >
<!--
2013-9-30: Created.
-->
<svg>
<metadata>
Created by iconfont
</metadata>
<defs>

<font id="iconfont" horiz-adv-x="1024" >
  <font-face
    font-family="iconfont"
    font-weight="500"
    font-stretch="normal"
    units-per-em="1024"
    ascent="896"
    descent="-128"
  />
    <missing-glyph />
    
    <glyph glyph-name="zhuce" unicode="&#59341;" d="M752.779277 197.225456c22.772498 0 41.198849 18.466262 41.198849 41.195779 0 13.119284-6.122673 24.787464-15.663319 32.329517l0.212856 0.25993c-31.702207 24.541861-66.94621 44.657755-105.004413 59.222002 48.439015 41.559066 79.256028 103.114295 79.256028 171.951647 0 125.12133-101.463639 226.585993-226.585993 226.585993-125.123377 0-226.587016-101.464663-226.587016-226.585993 0-68.837352 30.818036-130.392581 79.257051-171.951647-154.571154-59.301823-264.565398-208.763415-264.646242-384.297793l0-0.079821c0.080844-22.689607 18.507195-41.118004 41.198849-41.118004 22.770451 0 41.116981 18.428398 41.196802 41.118004 0 181.727662 147.894851 329.58158 329.58158 329.58158 74.497474 0 143.081036-25.128238 198.294595-66.945187C731.868244 201.515318 741.817205 197.225456 752.779277 197.225456zM526.193284 357.991941c-79.498561 0-144.190342 64.692805-144.190342 144.192389 0 79.498561 64.693828 144.191366 144.190342 144.191366 79.498561 0 144.191366-64.692805 144.191366-144.191366S605.691845 357.991941 526.193284 357.991941zM909.926191 59.148577 848.129453 59.148577l0 61.798785c0.001023 17.057115-13.839719 30.897857-30.897857 30.897857-17.099073 0-30.897857-13.840742-30.897857-30.897857l0-61.798785-61.796738 0c-17.097026 0-30.896834-13.838695-30.896834-30.897857 0-17.057115 13.799808-30.897857 30.896834-30.897857l61.796738 0 0-61.796738c0-17.059162 13.798785-30.895811 30.897857-30.895811 17.058139 0 30.897857 13.836649 30.897857 30.895811l0 61.796738 61.796738 0c17.058139 0 30.897857 13.840742 30.897857 30.897857C940.824049 45.308858 926.985353 59.148577 909.926191 59.148577z"  horiz-adv-x="1024" />

    
    <glyph glyph-name="database" unicode="&#59239;" d="M512-212c-212.032 0-384 85.952-384 192l0 0 0 108.032C128-18.08 299.968-84 512-84s384 65.92 384 172.032L896-20l0 0C896-126.048 724.032-212 512-212zM512-20c-212.032 0-384 85.952-384 192L128 280.032C128 173.92 299.968 108 512 108s384 65.92 384 172.032L896 172C896 65.952 724.032-20 512-20zM512 172c-212.032 0-384 85.952-384 192L128 472.032C128 365.92 299.968 300 512 300s384 65.92 384 172.032L896 364C896 257.952 724.032 172 512 172zM512 364C299.968 364 128 449.952 128 556L128 620c0 106.048 171.968 192 384 192s384-85.952 384-192l0-64C896 449.952 724.032 364 512 364z"  horiz-adv-x="1024" />

    
    <glyph glyph-name="shoushumingcheng" unicode="&#59051;" d="M848.825 673.337h-321.969c-25.409 0-30.048-11.12-54.262-36.456l-239.673-238.952 386.805-386.796 240.374 239.517c20.392 20.346 34.924 30.468 34.924 55.803l0 320.972c-0.001 25.315-20.791 45.913-46.199 45.913zM722.086 365.050c-37.434-37.454-98.143-37.454-135.575 0-37.435 37.456-37.435 98.209 0 135.665 37.432 37.478 98.14 37.478 135.575 0 37.435-37.457 37.435-98.209 0-135.665zM155.64 320.868c-38.91-38.767-38.91-101.652 0-140.422l246.515-245.778c38.91-38.767 101.964-38.767 140.871 0l42.685 42.563-386.804 386.789-43.268-43.153zM620.404 466.798c-18.73-18.729-18.73-49.104 0-67.833 18.73-18.725 49.082-18.725 67.788 0 18.73 18.729 18.73 49.104 0 67.833-18.704 18.729-49.058 18.729-67.788 0z"  horiz-adv-x="1024" />

    
    <glyph glyph-name="xitongxingneng" unicode="&#59000;" d="M682.666667 470.666667 341.333333 470.666667 341.333333 129.333333 682.666667 129.333333 682.666667 470.666667ZM938.666667 342.666667 938.666667 428 853.333333 428 853.333333 556C853.333333 602.933333 814.933333 641.333333 768 641.333333L640 641.333333 640 726.666667 554.666667 726.666667 554.666667 641.333333 469.333333 641.333333 469.333333 726.666667 384 726.666667 384 641.333333 256 641.333333C209.066667 641.333333 170.666667 602.933333 170.666667 556L170.666667 428 85.333333 428 85.333333 342.666667 170.666667 342.666667 170.666667 257.333333 85.333333 257.333333 85.333333 172 170.666667 172 170.666667 44C170.666667-2.933333 209.066667-41.333333 256-41.333333L384-41.333333 384-126.666667 469.333333-126.666667 469.333333-41.333333 554.666667-41.333333 554.666667-126.666667 640-126.666667 640-41.333333 768-41.333333C814.933333-41.333333 853.333333-2.933333 853.333333 44L853.333333 172 938.666667 172 938.666667 257.333333 853.333333 257.333333 853.333333 342.666667 938.666667 342.666667ZM768 44 256 44 256 556 768 556 768 44Z"  horiz-adv-x="1024" />

    
    <glyph glyph-name="shujukulianjie" unicode="&#59349;" d="M366.756523 613.704748c-190.902888 0-302.46373-46.276976-302.46373-103.337553l0-62.010309c0-57.060577 111.561865-103.33653 302.46373-103.33653 190.883445 0 324.031954 46.276976 324.031954 103.33653L690.788477 510.367195C690.789501 567.428795 557.639968 613.704748 366.756523 613.704748zM327.316256 86.946626c-130.971937 5.131881-207.502961 36.628222-247.732198 78.773088-10.284227-10.784624-15.291265-22.213931-15.291265-34.095539l0-90.954525c0-62.771649 111.464651-113.650433 302.233486-113.650433 19.083637 0 37.668924 0.654916 55.923684 1.63729C373.458155-34.25376 338.485643 21.93189 327.316256 86.946626zM363.020432 292.038678c-3.928472 0-7.702426-0.058328-11.707646-0.058328-147.400095 0-230.517117 29.40675-272.440949 69.945025-9.782807-9.503445-14.539134-19.517519-14.539134-29.984918l0-79.909981c0-50.821479 90.396823-92.725868 246.923786-98.994642C311.487755 205.84048 330.822103 254.273563 363.020432 292.038678zM945.146583 422.095779c-41.943274-42.136679-125.040854-72.678276-272.460392-72.678276-4.00522 0-7.740288 0.058328-11.669784 0.085958 0.751107-0.924045 1.425466-1.944282 2.157129-2.898003 63.146179-20.028149 112.966864-70.185502 133.091204-133.734864 104.665805 15.993253 163.441443 52.477188 163.441443 95.027284l0 83.048461C959.706183 401.789291 954.92939 412.245434 945.146583 422.095779zM944.376033 224.985516c-28.694529-26.632567-75.952856-48.461735-148.016125-60.497862 0.88516-7.338129 1.425466-14.800078 1.425466-22.339798 0-47.509037-17.794271-91.069135-47.336098-125.46348 133.476991 12.334933 209.255885 51.100842 209.255885 97.040127l0 80.931241C959.706183 205.22752 954.66026 215.405323 944.376033 224.985516zM659.572522 672.980783c-116.105345 0-210.623022-17.457604-266.451538-44.149523 199.838398-4.457522 336.819189-55.346539 336.819189-117.501134l0-70.695109c0-12.498662-5.585205-24.563442-16.080234-35.878139 156.103314 8.020674 245.845221 50.763151 245.845221 102.316294l0 62.222133C959.706183 626.559521 849.012082 672.980783 659.572522 672.980783zM556.831556 315.32401c-106.996896 0-193.733353-86.901209-193.733353-194.157002 0-107.247606 86.73748-194.147792 193.733353-194.147792 106.956987 0 193.714933 86.900186 193.714933 194.147792C750.546489 228.423825 663.789567 315.32401 556.831556 315.32401zM541.829887 255.240587l-29.849842-89.51985 208.889541 0 0.154519-29.492708-328.404542-0.346901L541.829887 255.240587zM571.756477-13.329195l29.829376 89.51985L392.698359 76.190655l0 29.839609 328.248999 0L571.756477-13.329195z"  horiz-adv-x="1024" />

    
    <glyph glyph-name="weizhi" unicode="&#58911;" d="M839.946482 506.663458c0 179.917116-147.043874 325.820973-328.561518 325.820973-181.460336 0-328.561518-145.903857-328.561518-325.820973 0-59.446709 16.307166-114.955546 44.308214-162.939652l-0.351011 0 284.574638-407.316894 284.690277 407.316894-0.379665 0C823.757001 391.707912 839.946482 447.216749 839.946482 506.663458M511.413617 343.784184c-90.716353 0-164.280247 72.922251-164.280247 162.907928 0 89.927346 73.563895 162.907928 164.280247 162.907928 90.802315 0 164.280247-72.980582 164.280247-162.907928C675.693865 416.706435 602.215932 343.784184 511.413617 343.784184"  horiz-adv-x="1025" />

    
    <glyph glyph-name="zhuce1" unicode="&#60301;" d="M620.39835-100.784824c-94.198566 54.399172-136.697919 137.897901-137.197911 244.596276-0.399994 94.398563 64.099024 162.497526 99.398487 242.39631 8.499871 19.299706 19.299706 37.599428 29.799546 55.899149 6.499901 11.299828 12.799805 23.599641 22.199662 32.19951 23.999635 21.999665 34.699472 62.699045 24.899621 90.498622-8.099877 23.099648-12.699807 47.599275-17.499734 71.698908-6.999893 35.199464-9.699852 71.59891-19.6997 105.798389-50.799227 173.997351-276.795786 193.897048-375.994276 91.398608-44.699319-46.099298-61.499064-102.298443-69.498942-163.297514-4.199936-32.499505-5.599915-66.098994-15.799759-96.798526-13.399796-40.09939-8.099877-74.598864 24.099633-102.698436 6.799896-5.89991 12.999802-14.599778 15.399766-23.199647 8.899865-32.099511 24.899621-58.899103 51.099222-79.898784 27.299584-21.899667 31.999513-51.999208 28.299569-84.498714-5.399918-48.799257-40.799379-71.398913-80.498774-87.598666C159.705364 179.810904 118.005998 169.011068 78.206604 153.311307c-32.399507-12.699807-64.799013-31.099527-68.798953-69.198946C4.707723 39.013047 6.807691-6.786255 7.007688-52.285563c0.099998-25.099618 17.299737-35.899453 39.199403-39.799394 29.699548-5.299919 59.499094-9.799851 89.29864-13.999787 143.19782-19.799699 286.795634-28.999558 431.093437-15.599762 21.899667 1.99997 43.499338 6.499901 71.298915 10.799836C628.398228-105.384754 624.398289-103.084789 620.39835-100.784824L620.39835-100.784824zM786.095827 372.50797c-127.898053 0-231.496476-103.698421-231.496476-231.496476 0-127.898053 103.698421-231.496476 231.496476-231.496476s231.496476 103.698421 231.496476 231.496476C1017.592303 268.809549 913.99388 372.50797 786.095827 372.50797zM900.094091 102.412082c-6.799896 0-13.599793 0-20.399689 0l0 0c-60.099085-0.099998-52.599199 5.499916-53.299189-52.899195 0-3.899941 0.099998-7.799881-0.099998-11.699822-1.499977-34.299478-16.299752-53.099192-41.599367-53.19919-25.59961 0-37.899423 17.399735-38.299417 54.199175-0.599991 60.099085-0.599991 60.099085-62.699045 64.099024-35.599458 2.299965-50.299234 14.399781-48.999254 40.399385 1.29998 25.999604 17.599732 38.599412 50.999224 39.199403 10.699837 0.199997 21.499673 0.899986 32.099511-0.099998 21.099679-2.099968 30.89953 5.299919 28.89956 27.799577-1.399979 16.39975-1.099983 33.199495 0.199997 49.599245 1.699974 21.199677 10.699837 37.999421 34.79947 39.499399 22.899651 1.499977 36.699441-10.699837 41.299371-32.699502 2.099968-10.399842 2.999954-21.099679 3.199951-31.699517 1.099983-60.499079-5.299919-51.499216 53.999178-52.299204 6.799896-0.099998 13.599793 0.199997 20.399689-0.099998 28.399568-1.099983 47.199281-17.399735 47.699274-40.999376C948.593353 118.211842 929.293647 102.412082 900.094091 102.412082z"  horiz-adv-x="1024" />

    
    <glyph glyph-name="guanlizhongxin" unicode="&#59043;" d="M973.013138 235.901842c-3.034502 16.017837-13.315685 26.371269-26.501319 26.371269l-1.835151 0c-25.251393 0-45.799309 20.54069-45.799309 45.777634 0 6.62533 2.897227 14.767911 4.002653 17.318338 6.24963 14.07431 1.437776 31.356523-12.448684 40.973005l-53.544514 29.651422c-4.197728 1.806251-8.735031 2.731052-13.48186 2.731052-9.695957 0-19.283539-3.952078-25.634319-10.534058-6.66868-6.878205-24.384393-21.068115-36.580202-21.068115-12.325859 0-30.149947 14.471686-36.833077 21.451041-6.37968 6.74093-16.053962 10.765258-25.858294 10.765258-4.696253 0-9.168532-0.895901-13.17841-2.629902l-0.997051-0.411825-54.498215-29.925972-1.286051-0.838101c-12.679884-8.814506-17.513413-26.075044-11.299908-40.033754 0.41905-1.004276 4.060453-9.854907 4.060453-17.455613 0-25.236943-20.547915-45.784859-45.806534-45.784859l-2.124152 0c-12.882184 0-23.163367-10.353433-26.197869-26.378494-0.4624-2.470952-4.522853-24.608368-4.522853-42.526381 0-17.910788 4.060453-40.048204 4.522853-42.533606 3.034502-16.017837 13.30846-26.364044 26.508544-26.364044l1.813476 0c25.258618 0 45.806534-20.547915 45.806534-45.784859 0-6.62533-2.897227-14.767911-4.002653-17.318338-6.242405-14.05986-1.437776-31.320398 12.398109-40.973005l52.533013-29.268496c4.190503-1.820701 8.720581-2.767177 13.48186-2.767177 9.876582 0 19.558089 4.125478 25.894419 11.032583 6.46638 7.022705 24.839568 22.411966 37.389402 22.411966 12.687109 0 30.850773-15.418161 37.642278-22.859917 6.36523-7.02993 16.111762-11.213208 26.075044-11.213208 4.681803 0 9.139632 0.895901 14.565611 3.287377l53.125464 29.355197 1.264376 0.838101c12.650984 8.800056 17.477288 26.046144 11.278233 40.019304-0.41905 1.004276-4.060453 9.854907-4.060453 17.455613 0 25.236943 20.55514 45.777634 45.799309 45.777634l2.109702 0c12.896634 0 23.192267 10.360658 26.212319 26.335144 0.050575 0.21675 4.537303 23.741367 4.537303 42.576956C977.528766 211.279023 973.475538 233.41644 973.013138 235.901842L973.013138 235.901842zM759.167431 112.751626c-44.585508 0-80.869484 36.291202-80.869484 80.891159 0 44.592733 36.283977 80.876709 80.869484 80.876709 44.599958 0 80.876709-36.283977 80.876709-80.876709C840.051365 149.042828 803.767389 112.751626 759.167431 112.751626L759.167431 112.751626zM759.167431 112.751626M616.451902 430.485684c21.255966 37.750653 40.214379 81.65701 40.214379 123.713766 0 142.029154-93.354293 257.166838-208.506428 257.166838S239.653426 696.228604 239.653426 554.19945c0-88.06559 80.667184-193.059366 90.623241-212.14783 9.963282-19.081239 7.535681-48.161885-0.3179-56.976392-11.812884-13.243435-54.96784-26.501319-54.96784-26.501319l-159.202992-70.964002c-37.194327-13.35181-66.332774-48.42921-66.332774-88.015014l0-18.770564c0-43.198307 35.077401-69.620151 78.196232-69.620151l267.007296 0 91.519142 0 48.732661 0c-39.426854 47.83676-63.103196 109.12648-63.103196 175.957779C471.800071 292.199083 530.279263 383.559275 616.451902 430.485684L616.451902 430.485684zM616.451902 430.485684"  horiz-adv-x="1024" />

    
    <glyph glyph-name="canshu" unicode="&#59249;" d="M435.498667 0H64a64 64 0 0 0 0 128h371.498667c-5.76-20.352-8.832-41.813333-8.832-64s3.072-43.648 8.832-64z m451.669333 0H960a64 64 0 0 1 0 128h-72.832c5.76-20.352 8.832-41.813333 8.832-64s-3.072-43.648-8.832-64zM136.832 554.666667H64a64 64 0 0 0 0 128h72.832C131.072 662.314667 128 640.853333 128 618.666667s3.072-43.648 8.832-64z m451.669333 0H960a64 64 0 0 1 0 128h-371.498667c5.76-20.352 8.832-41.813333 8.832-64s-3.072-43.648-8.832-64zM362.666667 426.666667a192 192 0 1 0 0 384 192 192 0 0 0 0-384z m0 128a64 64 0 1 1 0 128 64 64 0 0 1 0-128z m298.666666-682.666667a192 192 0 1 0 0 384 192 192 0 0 0 0-384z m0 128a64 64 0 1 1 0 128 64 64 0 0 1 0-128z"  horiz-adv-x="1024" />

    
    <glyph glyph-name="shijian1" unicode="&#58886;" d="M523.282 896C240.53 896 11.26 666.807 11.26 384.024S240.53-128 523.282-128c282.756 0 511.963 229.24 511.963 512.024S806.038 896 523.282 896z m256.06-568.491H507.496c-5.757 0-11.272 1.15-16.333 3.302-15 6.364-25.606 21.273-25.606 38.637V641.322c0 23.181 18.788 41.97 41.939 41.97 23.242 0 42-18.789 42-41.97v-229.846h229.846c23.18 0 41.967-18.788 41.967-42 0-23.18-18.788-41.967-41.967-41.967z m0 0"  horiz-adv-x="1051" />

    
    <glyph glyph-name="auth" unicode="&#59035;" d="M819.2 397.653c-10.24 10.24-23.893 17.067-40.96 17.067h-535.893c-17.067 0-27.307-6.827-40.96-17.067-10.24-10.24-17.067-23.893-17.067-40.96v-276.48c0-13.653 3.413-27.307 6.827-40.96 3.413-13.653 10.24-23.893 20.48-34.133 10.24-10.24 20.48-17.067 34.133-23.893 13.653-6.827 27.307-10.24 40.96-10.24h440.32c17.067 0 30.72 3.413 44.373 10.24s23.893 13.653 34.133 23.893c10.24 10.24 17.067 20.48 23.893 34.133 6.827 13.653 6.827 27.307 6.827 44.373v269.653c0 17.067-3.413 30.72-17.067 44.373zM532.48 196.267v-105.813c0-10.24-10.24-20.48-20.48-20.48s-20.48 10.24-20.48 20.48v105.813c-23.893 6.827-40.96 30.72-40.96 58.027 0 34.133 27.307 61.44 61.44 61.44s61.44-27.307 61.44-61.44c0-27.307-17.067-47.787-40.96-58.027zM406.187 568.32c0 37.547 10.24 64.853 27.307 85.333 20.48 20.48 44.373 30.72 75.093 30.72 34.133 0 61.44-10.24 81.92-30.72 20.48-20.48 30.72-47.787 30.72-85.333v-102.4h105.813v126.293c0 27.307-6.827 54.613-17.067 78.507-10.24 23.893-27.307 44.373-47.787 64.853-20.48 17.067-44.373 34.133-68.267 44.373-27.307 10.24-51.2 17.067-81.92 17.067-30.72 0-61.44-6.827-85.333-17.067-27.307-10.24-47.787-23.893-68.267-44.373-20.48-17.067-34.133-40.96-44.373-64.853-10.24-23.893-17.067-51.2-17.067-78.507v-126.293h109.227v102.4z"  horiz-adv-x="1024" />

    
    <glyph glyph-name="wenjian" unicode="&#58968;" d="M597.333 810.667H256c-46.933 0-84.907-38.4-84.907-85.334l-0.426-682.666c0-46.934 37.973-85.334 84.906-85.334H768c46.933 0 85.333 38.4 85.333 85.334v512l-256 256zM682.667 128H341.333v85.333h341.334V128z m0 170.667H341.333V384h341.334v-85.333zM554.667 512V746.667L789.333 512H554.667z"  horiz-adv-x="1024" />

    
    <glyph glyph-name="wenjianjia" unicode="&#59042;" d="M782.677333 156.740267c-5.700267-20.002133-17.169067-38.1952-38.263466-38.1952H300.714667l66.901333 281.258666c5.768533 20.1728 17.066667 38.1952 38.161067 38.1952H811.349333c21.060267 0 38.161067-17.1008 38.161067-38.1952l-66.833067-243.063466M343.005867 500.8384h430.08v37.546667a38.229333 38.229333 0 0 1-38.1952 38.229333h-229.376V611.259733a38.229333 38.229333 0 0 1-38.229334 38.1952H276.104533a38.229333 38.229333 0 0 1-38.229333-38.1952v-454.519466l66.833067 305.8688c5.5296 19.592533 17.2032 38.229333 38.2976 38.229333m0 0z"  horiz-adv-x="1024" />

    
    <glyph glyph-name="jiantou" unicode="&#58948;" d="M941.2 621.2c-25 25-65.5 25-90.5 0L512 282.5 173.2 621.2c-25 25-65.5 25-90.5 0s-25-65.5 0-90.5l384-384c12.5-12.5 28.9-18.8 45.2-18.8s32.8 6.2 45.2 18.8l384 384c25.1 25.1 25.1 65.5 0.1 90.5z"  horiz-adv-x="1024" />

    
    <glyph glyph-name="qianjin" unicode="&#58923;" d="M230.418-68.172v897.415l0.845 1.69c-1.014 4.056-1.69 8.281-1.69 12.675 0 28.9 23.492 52.391 52.222 52.391h0.676c0.676 0 1.183-0.169 1.859-0.169 5.070-0.169 10.14-1.183 14.703-2.873 0.507-0.169 1.183-0.338 1.69-0.507 10.14-3.887 18.76-10.816 24.675-19.774l455.975-455.975c2.197-2.197 3.38-5.070 5.070-7.605 11.83-17.915 10.816-41.913-5.070-57.631l-455.975-455.975c-5.915-8.957-14.703-15.886-24.844-19.774l-1.521-0.507c-4.732-1.69-9.802-2.704-15.21-2.873-0.507 0-1.014-0.169-1.521-0.169h-0.676c-23.83 0-43.603 15.886-50.025 37.519l-1.521-1.521v8.619c0 2.366-0.507 4.901-0.507 7.436 0 2.704 0.338 5.239 0.845 7.605z"  horiz-adv-x="1024" />

    
    <glyph glyph-name="guzhang" unicode="&#58930;" d="M692.378 352.209l-54.174-54.75-39.455 35.135-47.902 46.462 85.917 91.933c96.477-42.046 196.57-24.99 263.928 33.375 66.142 57.406 66.142 170.267 66.142 170.267l-52.959 20.671-101.788-103.037L663.643 739.43 766.136 843.138 745.21 895.968s-102.557 0-170.939-67.87c-63.55-63.038-83.677-166.747-38.91-260.504l-89.15-86.973-128.316 124.508-7.616 87.197-120.124 77.438-33.887-33.919-33.823-33.95-33.919-33.92 77.31-120.348 81.757-7.136 131.548-125.34L42.99 87.225s-9.695-60.254 29.568-99.58c31.647-31.68 89.085-25.184 89.085-25.184l326.262 349.11 47.294-45.087 35.135-34.975-67.358-69.182c96.637-96.733 193.242-193.53 289.88-290.327 99.516 26.815 156.89 95.901 189.497 189.818-96.733 96.861-193.37 193.658-289.975 290.391zM169.451 33.883c-15.488-15.584-40.671-15.776-56.35-0.288-15.616 15.52-15.744 40.799-0.289 56.51 15.456 15.712 40.703 15.872 56.383 0.288 15.583-15.551 15.807-40.767 0.256-56.51z m631.884-87.357L581.534 166.679l32.575 32.607 227.609-228.09-40.383-24.67z m77.438 61.854l-227.61 227.993 32.608 32.703L903.54 48.922l-24.767-40.542z m0 0"  horiz-adv-x="1024" />

    
    <glyph glyph-name="tongji" unicode="&#58893;" d="M115.3024 309.9648c0 27.3408 22.016 49.4592 50.0736 49.4592h98.2016c27.648 0 50.0736-22.528 50.0736-49.4592v-297.8816c0-27.3408-22.016-49.4592-50.0736-49.4592H165.376c-27.648 0-50.0736 22.528-50.0736 49.4592V309.9648z m595.1488 198.144c0 27.4432 22.016 49.7664 50.0736 49.7664h98.2016c27.648 0 50.0736-22.6304 50.0736-49.7664v-495.7184c0-27.4432-22.016-49.7664-50.0736-49.7664h-98.2016c-27.648 0-50.0736 22.6304-50.0736 49.7664V508.1088zM403.5584 720.5888c0 27.9552 22.4256 50.5856 50.9952 50.5856h100.1472c28.16 0 50.9952-22.528 50.9952-50.5856v-707.4816c0-27.9552-22.4256-50.5856-50.9952-50.5856h-100.1472c-28.16 0-50.9952 22.528-50.9952 50.5856V720.5888z"  horiz-adv-x="1024" />

    
    <glyph glyph-name="jisuanyinqing" unicode="&#58933;" d="M977.91505 481.209527h-63.99932a412.027622 412.027622 0 0 1-49.279477 119.486731l45.311519 45.439517a44.095531 44.095531 0 0 1 0 62.271338l-74.687207 74.815205a42.36755 42.36755 0 0 1-31.103669 12.927863 42.36755 42.36755 0 0 1-31.167669-12.927863l-45.247519-45.375518a411.579627 411.579627 0 0 1-119.294733 49.279477V851.76559a42.36755 42.36755 0 0 1-12.863863 31.167669 42.36755 42.36755 0 0 1-31.167669 12.927862H458.880564a44.031532 44.031532 0 0 1-44.031532-44.15953V787.190276c-42.623547-10.239891-82.751121-26.879714-119.102734-49.151478l-45.631515 45.695515a43.967533 43.967533 0 0 1-62.271339 0L113.092238 708.855108a42.431549 42.431549 0 0 1-12.927862-31.167668c0-12.159871 4.287954-22.527761 12.927862-31.167669l45.695515-45.695515a411.963623 411.963623 0 0 1-49.407475-118.974736H44.676965a44.031532 44.031532 0 0 1-44.031532-44.031532v-105.790876c0-24.319742 19.711791-44.031532 44.031532-44.031532h64.639314c10.239891-42.623547 26.815715-82.81512 49.023479-119.166734l-45.759514-45.759514a44.095531 44.095531 0 0 1 0-62.335337l74.751206-74.751206a44.031532 44.031532 0 0 1 62.271338 0l45.631515 45.695514c36.287614-22.399762 76.287189-39.359582 118.846737-49.663472v-64.511314c0-12.159871 4.287954-22.59176 12.927863-31.167669a42.36755 42.36755 0 0 1 31.10367-12.927863H563.839449c24.319742 0 44.031532 19.711791 44.031532 44.095532v64.319316a411.25963 411.25963 0 0 1 119.358732 49.151478l45.375518-45.439517a43.967533 43.967533 0 0 1 62.271338 0l74.687207 74.751205a42.431549 42.431549 0 0 1 12.927863 31.167669 42.495548 42.495548 0 0 1-12.927863 31.167669l-45.311519 45.311519a412.155621 412.155621 0 0 1 49.663473 119.358732h64.063319c12.159871 0 22.59176 4.351954 31.167669 12.927862a42.495548 42.495548 0 0 1 12.863863 31.167669V437.113996a44.031532 44.031532 0 0 1-44.031532 44.095531zM224.387056 250.747976a317.116631 317.116631 0 0 0 259.581242 449.85122v-229.949557a93.439007 93.439007 0 0 1-62.463336-105.790876l-197.117906-114.110787z m518.650489-82.87912l-14.463846-14.527845a315.452648 315.452648 0 0 0-216.4457-86.079086h-1.023989a316.284639 316.284639 0 0 0-257.277267 133.054587l195.77392 113.342795a92.607016 92.607016 0 0 1 127.550645 0.575994l193.661942-112.126808a313.660667 313.660667 0 0 0-27.775705-34.239637z m85.247094 203.389839a314.684656 314.684656 0 0 0-28.607696-118.398742L604.735015 365.690755a93.439007 93.439007 0 0 1-62.527336 104.958884V700.343199a315.452648 315.452648 0 0 0 186.36602-84.607101l14.015851-13.951852a316.22064 316.22064 0 0 0 85.63109-203.32584v-27.199711z"  horiz-adv-x="1024" />

    
    <glyph glyph-name="link" unicode="&#58880;" d="M625.5348900345678 499.4896428246914c-7.430649679012345 7.428060602469135-15.351929362962961 14.123412543209877-23.5139931654321 20.33460717037037l-0.015534459259259259-0.014239920987654319c-8.40155338271605 8.079213353086416-19.80773009382716 13.056713007407408-32.38416940246913 13.056713007407408-25.81179859753086 0-46.73542068148148-20.924916622222216-46.73542068148148-46.73800975802469 0-11.417827555555556 4.103686320987654-21.878991328395063 10.910368553086421-29.997040829629626h-0.002589076543209877a46.788496750617284 46.788496750617284 0 0 1 11.533041461728399-9.926519466666665c4.405313738271604-3.6363580049382715 8.731660641975308-7.214461787654321 12.775798202469135-11.25730480987654l3.8525458962962964-3.8538404345679007c48.439033046913565-48.37689520987654 33.97904055308642-131.72185821234567-14.459992493827158-180.16218579753087L340.81025896296296 44.310568454321015c-48.43256035555555-48.37560067160494-127.17802887901233-48.37560067160494-175.61706192592592 0l-3.8810257382716054 3.886203891358024c-48.439033046913565 48.43514943209876-48.439033046913565 127.23628310123455 0 175.55362955061725l91.3102569876543 91.28307168395061c11.719454972839507 9.29866840493827 19.23813325432099 23.65121422222222 19.23813325432099 39.76951024197531 0 28.033226271604935-22.725619358024687 50.76014016790123-50.76014016790123 50.76014016790123a50.5128833580247 50.5128833580247 0 0 1-28.52515081481482-8.775674943209875 2.3379361185185186 2.3379361185185186 0 0 0-0.08285044938271606 0.15922820740740737l-0.9734927802469134-0.9100604049382714a51.004807901234564 51.004807901234564 0 0 1-9.650782814814814-9.03069898271605l-94.8922443851852-88.79496912592592c-89.20015960493826-89.26100290370371-89.20015960493826-235.24867286913573 0-324.3841055604938l3.8525458962962964-3.8538404345679007c89.20145414320989-89.13543269135803 235.12310265679014-89.13543269135803 324.32196772345674 0l206.6277262222222 206.68598044444443c89.07329485432098 89.19498145185185 96.62822020740741 229.89964073086418 7.552336276543207 319.0376624987655l-3.7955862123456785 3.7929971358024686zM923.3757828740743 802.5824774320988l-3.8551349728395063 3.8551349728395063c-89.19627599012345 89.19886506666666-235.12310265679014 89.19886506666666-324.31937864691355 0l-206.62513714567896-206.68598044444443c-89.19886506666666-89.20145414320989-94.11163780740739-218.00801216790126-4.91277274074074-307.26513145679013l3.7929971358024686-3.734742913580247c4.050610251851852-4.050610251851852 8.25527055802469-7.86690907654321 12.545370390123455-11.530452385185185a44.46609509135802 44.46609509135802 0 0 1 10.814572720987654-8.788620325925926c0.028479841975308638-0.024596227160493825 0.062137837037037034-0.050486992592592594 0.09450129382716049-0.07508321975308642l0.010356306172839507 0.012945382716049378a43.88873102222222 43.88873102222222 0 0 1 21.954074548148146-5.85908021728395c24.368388424691357 0 44.12304244938271 19.758537639506176 44.12304244938271 44.12174791111111 0 6.877881837037035-1.5780421530864195 13.385525728395061-4.384601125925926 19.188940799999997-5.833189451851851 13.095549155555554-16.750030696296296 21.068610370370372-24.302366972839504 28.622241185185185l-3.7929971358024686 3.7321538370370373c-48.43385489382717 48.43256035555555-30.042349669135803 118.80107172345677 18.39279976296296 167.23622115555554l206.74811828148145 206.6264316839506c48.31216829629629 48.43514943209876 127.08482212345677 48.43514943209876 175.5212660938272 0l3.856429511111111-3.7942916740740738c48.436443970370355-48.436443970370355 48.436443970370355-127.26994109629628 0-175.64554176790122l-91.01380772345678-91.07465102222223c-12.379669491358024-9.174392730864197-20.41098492839506-23.88940926419753-20.41098492839506-40.48021175308642 0-27.805387535802467 22.54179492345679-50.34977153580247 50.351066074074076-50.34977153580247a50.10510380246913 50.10510380246913 0 0 1 26.389162666666667 7.469485827160494c0.05566514567901234-0.0983849086419753 0.10874121481481479-0.18900258765432099 0.1695845135802469-0.2899765728395061l1.411046716049383 1.3036000395061722a50.66434433580246 50.66434433580246 0 0 1 11.459252780246914 10.573788602469136l95.9201077728395 88.50628709135803c89.26488651851851 89.20015960493826 89.26488651851851 235.12569173333327 0.06343237530864197 324.3245568z"  horiz-adv-x="1024" />

    
    <glyph glyph-name="wenjianjia1" unicode="&#59208;" d="M128.600937 624.262062c0 52.984748 42.950208 95.934956 95.934956 95.934956h191.869912c52.979632 0 95.934956-42.950208 95.934956-95.934956h287.804868c52.984748 0 95.934956-42.950208 95.934956-95.934956h-767.479648v95.934956z m767.479648-143.902434v-335.772346c0-52.979632-42.950208-95.934956-95.934956-95.934956h-575.609736c-52.984748 0-95.934956 42.955324-95.934956 95.934956V480.359628h767.479648z"  horiz-adv-x="1024" />

    
    <glyph glyph-name="shouqi" unicode="&#58964;" d="M912.832 584.448H111.168a47.168 47.168 0 0 0 0 94.272h801.664a47.168 47.168 0 0 0 0-94.272zM568.576 329.984H568.32l-457.408 2.432a47.168 47.168 0 0 0 0.256 94.336h0.256l457.408-2.496a47.168 47.168 0 0 0-0.256-94.272zM865.664 89.28H111.104a47.168 47.168 0 0 0 0 94.272h754.56a47.168 47.168 0 0 0 0-94.272z"  horiz-adv-x="1024" />

    
    <glyph glyph-name="guanli1" unicode="&#58903;" d="M410.344 780.425H118.927c-15.947 0-29.054-12.889-29.054-29.054v-308.238c0-16.165 13.107-29.054 29.054-29.054h291.198c16.165 0 29.054 13.107 29.054 29.054V751.371c0.219 16.165-12.889 29.054-28.836 29.054z m0-465.96H118.927c-16.165 0-29.054-13.107-29.054-29.054v-291.417c0-16.165 13.107-29.054 29.054-29.054h291.198c16.165 0 29.054 13.107 29.054 29.054V285.411c0.219 15.947-12.889 29.054-28.836 29.054z m465.961 0H585.107c-16.165 0-29.054-13.107-29.054-29.054v-291.417c0-16.165 13.107-29.054 29.054-29.054h291.198c16.165 0 29.054 13.107 29.054 29.054V285.411c0 15.947-12.889 29.054-29.054 29.054z m60.074 329.208L768.607 811.445c-10.704 10.704-24.903 16.603-39.977 16.603s-29.273-5.899-39.977-16.603L520.881 643.673c-10.704-10.704-16.603-24.903-16.603-39.977s5.899-29.273 16.603-39.977l167.772-167.772c10.704-10.704 24.903-16.603 39.977-16.603s29.273 5.899 39.977 16.603l167.772 167.772c22.064 22.064 22.064 57.89 0 79.954zM728.63 448.813L573.747 603.696 728.63 758.579l154.883-154.883L728.63 448.813z"  horiz-adv-x="1024" />

    
    <glyph glyph-name="denglu" unicode="&#58947;" d="M512 896C345.6 896 211.2 761.6 211.2 601.6c0-166.4 134.4-294.4 300.8-294.4s300.8 134.4 300.8 294.4S672 896 512 896z m249.6-614.4C691.2 224 608 166.4 518.4 166.4S339.2 224 268.8 281.6C83.2 211.2 0-19.2 0-128h1024c0 108.8-83.2 339.2-262.4 409.6z"  horiz-adv-x="1024" />

    
    <glyph glyph-name="shuangxian" unicode="&#58887;" d="M364.8 542.72h112.64v-317.44h-112.64zM546.56 542.72h112.64v-317.44h-112.64z"  horiz-adv-x="1024" />

    
    <glyph glyph-name="shuxing" unicode="&#58894;" d="M512 839.111111C261.688889 839.111111 56.888889 634.311111 56.888889 384s204.8-455.111111 455.111111-455.111111 455.111111 204.8 455.111111 455.111111-204.8 455.111111-455.111111 455.111111zM426.666667 128c-28.444444 0-51.2 11.377778-51.2 45.511111 0 39.822222 28.444444 108.088889 34.133333 119.466667l56.888889 147.911111c5.688889 17.066667 0 22.755556-5.688889 22.755555-28.444444 0-68.266667-73.955556-85.333333-73.955555-5.688889 0-11.377778 5.688889-11.377778 11.377778 0 17.066667 34.133333 51.2 45.511111 62.577777 34.133333 34.133333 73.955556 56.888889 125.155556 56.888889 34.133333 0 73.955556-22.755556 45.511111-102.4l-56.888889-159.288889c-5.688889-11.377778-11.377778-34.133333-11.377778-45.511111 0-5.688889 5.688889-11.377778 11.377778-11.377777 22.755556 0 68.266667 68.266667 79.644444 68.266666 5.688889 0 11.377778-5.688889 11.377778-11.377778-5.688889-28.444444-102.4-130.844444-187.733333-130.844444zM568.888889 548.977778c-34.133333 0-56.888889 22.755556-56.888889 56.888889S546.133333 668.444444 580.266667 668.444444s56.888889-22.755556 56.888889-56.888888c0-39.822222-34.133333-62.577778-68.266667-62.577778z"  horiz-adv-x="1024" />

    
    <glyph glyph-name="wangluo" unicode="&#60107;" d="M512 896C230.4 896 0 665.6 0 384s230.4-512 512-512 512 230.4 512 512-230.4 512-512 512zM345.6 416c-12.8 38.4-25.6 38.4-64 19.2s-6.4-57.6 32-89.6 6.4-32 6.4-32c-147.2 70.4-172.8 128-172.8 128s-44.8 44.8-51.2 128c25.6 64 70.4 121.6 121.6 166.4 25.6-25.6 64-57.6 83.2-64 19.2-12.8 32 44.8 70.4 32 38.4-12.8 25.6 12.8 70.4 6.4 44.8 0 19.2-44.8-6.4-57.6-25.6-12.8-89.6 0-38.4-51.2 51.2-51.2 25.6 32 89.6 32 57.6 0 70.4-25.6 76.8-51.2 6.4-32-32-38.4-70.4-51.2-44.8-19.2-102.4-57.6-102.4-89.6-6.4-38.4-38.4-64-44.8-25.6z m224-268.8c-25.6-38.4-51.2-76.8-64-147.2s-44.8-19.2-57.6 0c-12.8 19.2-25.6 38.4-25.6 108.8s-44.8 25.6-64 121.6c-12.8 96 32 108.8 102.4 108.8s64-19.2 115.2-64 25.6-89.6-6.4-128z m275.2 83.2c-12.8-32-38.4-12.8-57.6 0s-12.8 38.4 0 44.8c19.2 12.8 70.4-12.8 57.6-44.8zM960 339.2v-12.8c0-12.8 0-19.2-6.4-25.6v-12.8c0-12.8-6.4-25.6-12.8-38.4-32 19.2-70.4 38.4-83.2 64-19.2 44.8-70.4 64-89.6 121.6-32 96 12.8 89.6 19.2 147.2 0 25.6-19.2 32-44.8 25.6-64-25.6-83.2-12.8-96 32s0 57.6 0 57.6c-44.8-6.4-51.2 38.4-25.6 51.2 12.8 12.8 25.6 38.4-19.2 70.4 64-12.8 128-38.4 179.2-76.8 12.8-6.4 19.2-12.8 25.6-19.2h6.4c25.6-19.2 44.8-44.8 57.6-64 0 0 6.4-6.4 6.4-12.8 6.4-6.4 6.4-12.8 12.8-19.2 6.4-6.4 6.4-12.8 12.8-12.8 0-6.4 6.4-12.8 12.8-19.2 0-6.4 6.4-12.8 12.8-19.2l6.4-12.8c6.4-12.8 6.4-25.6 12.8-38.4V512c0-12.8 6.4-19.2 6.4-25.6v-12.8c6.4-12.8 6.4-25.6 6.4-32V339.2z"  horiz-adv-x="1024" />

    
    <glyph glyph-name="Shapex-" unicode="&#59233;" d="M894.337662 713.142857h-36.571428s-86.441558 3.324675-172.883117 36.571429C595.116883 786.285714 538.597403 829.506494 535.272727 829.506494l-23.272727 16.623376-23.272727-16.623376s-59.844156-43.220779-149.61039-79.792208c-86.441558-33.246753-169.558442-36.571429-169.558441-36.571429H132.987013v-392.311688c0-196.155844 249.350649-405.61039 382.337662-405.61039S897.662338 121.350649 897.662338 320.831169l-3.324676 392.311688zM468.779221 211.116883l-162.909091 139.636364 49.87013 59.844156 103.064935-89.766234 196.155844 232.727273 59.844156-49.87013-246.025974-292.571429z"  horiz-adv-x="1024" />

    
    <glyph glyph-name="xitong" unicode="&#58884;" d="M242.07872-36.81792c0 6.73792 0.9984 13.98784 0.51712 20.64384-1.59232 18.57536 8.7296 30.96576 21.08416 41.21088 4.62336 4.1472 12.39552 5.14048 19.12832 5.14048 78.8736 0.47616 158.18752 0 237.02016 0h220.68224c29.4144 0 41.21088-11.91936 41.21088-41.80992 0-8.77056 0.47616-17.01888 0.47616-25.78432-179.78368 0.59904-360.24832 0.59904-540.11904 0.59904zM929.19296 766.79168c-19.56864 23.67488-44.24192 37.06368-75.24864 38.62016H180.26496c-40.69376 0-72.65792-15.94368-93.30176-51.49184-6.17984-10.88-9.24672-24.192-13.39392-36.58752 0.47616-164.88448 0.47616-331.39712 0.47616-497.39776 6.17984-14.90432 9.88672-31.44704 18.57536-44.31872 20.6848-30.96576 51.01568-43.8784 87.64416-43.8784h231.00416v-31.44704c0-21.64224 13.91104-36.0704 35.58912-36.0704h129.88928c21.64224 0 36.0704 14.90432 36.0704 37.06368v29.8496c4.1472 0 7.77216 0.51712 11.36128 0.51712h220.04224c40.73472 0 72.65792 16.50176 92.8256 52.01408 6.17984 11.27936 8.77056 24.15104 13.39392 36.54656V718.68416c-4.27008 17.1008-9.41056 34.11968-21.248 48.10752zM858.56768 175.0528c-13.39392 0-23.71584 10.8032-24.192 23.67488 0 13.39392 10.8032 24.79104 24.192 24.79104 13.39392 0 24.79104-10.8032 24.192-24.192 0.59904-13.98784-10.8032-24.27392-24.192-24.27392z m-16.54272 91.23328H182.25664c-11.36128 0-22.15936 1.59232-30.96576 10.28096-8.24832 8.28928-10.36288 18.57536-10.36288 29.93152V699.3152c0 26.2656 13.39392 39.09632 39.73632 39.09632h661.76512c27.81696 0 40.69376-12.87168 40.69376-40.69376v-390.18496c0.23552-28.37504-12.67712-41.24672-41.09824-41.24672z m7.296 235.46368v-66.47808h-206.21312c-6.17984 0-9.8048-2.03264-12.39552-7.77216-17.49504-35.03104-35.03104-70.54336-52.608-105.69728-6.656-12.87168-16.50176-21.16096-31.44704-21.64224-17.01888-0.47616-28.93312 9.8048-34.47296 28.93312-13.98784 45.31712-27.3408 91.22816-41.21088 136.54528a15680.62976 15680.62976 0 0 0-30.96576 104.10496c-0.9984 2.59072-2.11456 5.14048-3.03104 8.77056-2.11456-4.10624-3.66592-6.656-5.14048-9.24672-18.57536-37.66272-37.66272-74.69056-56.1152-112.39424-7.17312-14.42816-18.57536-22.08256-34.55488-21.64224h-159.744c-1.59232 0-3.03104 0.51712-5.14048 0.51712V502.23104h137.62048c7.13216 0 10.8032 2.59072 13.91104 8.77056C356.1472 568.22784 384.5632 625.46432 413.37856 682.09664c6.656 12.87168 15.90272 21.64224 30.96576 21.64224 17.01888 0.47616 28.89728-9.28768 34.47296-27.3408 19.12832-62.37184 37.66272-124.78976 56.15616-187.12064 6.17984-20.64384 12.39552-41.21088 19.05152-63.4112 1.59232 2.5088 3.03104 4.10624 3.62496 6.17984 8.28928 16.50176 16.5376 32.44032 24.79104 48.94208 6.73792 13.98784 18.01728 21.16096 33.55648 21.16096h230.36416c0.4096 0.19968 1.40288 0.19968 2.95936-0.39936z"  horiz-adv-x="1024" />

    
    <glyph glyph-name="tongji1" unicode="&#58953;" d="M142.222222 384A85.333333 85.333333 0 0 1 56.888889 298.666667v-341.333334a85.333333 85.333333 0 0 1 170.666667 0v341.333334A85.333333 85.333333 0 0 1 142.222222 384zM512 896a85.333333 85.333333 0 0 1-85.333333-85.333333v-853.333334a85.333333 85.333333 0 0 1 170.666666 0v853.333334A85.333333 85.333333 0 0 1 512 896zM881.777778 668.444444A85.333333 85.333333 0 0 1 796.444444 583.111111v-625.777778a85.333333 85.333333 0 0 1 170.666667 0v625.777778A85.333333 85.333333 0 0 1 881.777778 668.444444z"  horiz-adv-x="1024" />

    
    <glyph glyph-name="square" unicode="&#59190;" d="M848 832H176c-61.6 0-112-50.4-112-112v-672c0-61.6 50.4-112 112-112h672c61.6 0 112 50.4 112 112V720c0 61.6-50.4 112-112 112z"  horiz-adv-x="1024" />

    
    <glyph glyph-name="gailan-mingzhongshuai" unicode="&#58888;" d="M875.076267 747.076267c47.5904-47.5904 84.309333-102.570667 110.1568-164.923734C1011.080533 519.790933 1024 453.742933 1024 384c0-92.714667-23.381333-178.8672-70.152533-258.4576-44.305067-77.1328-105.028267-138.257067-182.152534-183.381333C692.104533-104.618667 605.5424-128 512-128s-180.104533 23.381333-259.694933 70.152533c-77.124267 45.1328-137.847467 106.257067-182.152534 183.381334C23.389867 205.141333 0 291.293867 0 384c0 92.714667 23.381333 178.8672 70.152533 258.4576 45.1328 77.1328 106.257067 138.257067 183.381334 183.381333C333.141333 872.618667 419.293867 896 512 896h50.4576v-423.381333c15.5904-8.209067 28.3136-20.309333 38.161067-36.309334a97.937067 97.937067 0 0 0 14.762666-52.309333c0-27.904-10.257067-52.104533-30.762666-72.618667-20.514133-20.5056-44.714667-30.762667-72.618667-30.762666-27.904 0-52.104533 10.257067-72.618667 30.762666-20.5056 20.514133-30.762667 44.714667-30.762666 72.618667 0 18.875733 4.923733 36.309333 14.762666 52.309333 9.847467 16 22.570667 28.100267 38.161067 36.309334V580.923733c-45.1328-11.485867-82.056533-35.285333-110.7712-71.381333C322.048 473.429333 307.694933 431.5904 307.694933 384c0-36.923733 9.224533-70.971733 27.690667-102.152533a208.887467 208.887467 0 0 1 74.461867-74.461867c31.1808-18.466133 65.2288-27.690667 102.152533-27.690667s70.971733 9.224533 102.152533 27.690667a208.887467 208.887467 0 0 1 74.461867 74.461867c18.466133 31.1808 27.690667 65.2288 27.690667 102.152533 0 27.076267-5.333333 52.923733-16 77.5424a224.298667 224.298667 0 0 1-44.305067 66.4576l72.618667 72.618667a313.514667 313.514667 0 0 0 67.072-99.080534c16-37.333333 24.004267-76.509867 24.004266-117.538133 0-55.790933-13.738667-107.281067-41.233066-154.461867-27.485867-47.1808-64.8192-84.514133-112-112S567.790933 76.305067 512 76.305067c-55.790933 0-107.281067 13.738667-154.461867 41.233066-47.1808 27.485867-84.514133 64.8192-112 112S204.305067 328.209067 204.305067 384c0 50.048 11.281067 96.6144 33.851733 139.690667a317.4656 317.4656 0 0 0 92.305067 108.3136c38.971733 29.124267 82.6624 47.377067 131.072 54.766933V790.152533c-66.4576-7.381333-127.172267-30.148267-182.152534-68.309333-54.971733-38.144-98.048-86.357333-129.2288-144.6144-32.8192-60.714667-49.237333-125.124267-49.237333-193.2288 0-73.847467 18.875733-142.762667 56.6272-206.762667 36.096-62.3616 85.333333-111.598933 147.6864-147.694933 64-37.751467 132.923733-56.618667 206.7712-56.618667 73.847467 0 142.762667 18.8672 206.762667 56.618667 62.3616 36.096 111.598933 85.333333 147.694933 147.6864 37.751467 64 56.618667 132.923733 56.618667 206.7712 0 55.790933-10.666667 108.714667-32 158.7712-21.333333 50.048-50.8672 93.952-88.618667 131.6864l72.618667 72.618667z"  horiz-adv-x="1024" />

    
    <glyph glyph-name="i-data" unicode="&#58931;" d="M350.92760272 389.33333333a53.90470673 53.90470673 0 0 1-53.90470674 53.90470673H61.90470673a53.90470673 53.90470673 0 0 1 0-107.80941346h235.11818925a53.90470673 53.90470673 0 0 1 53.90470674 53.90470673zM962.09529327 443.23804006H727.0333955a53.90470673 53.90470673 0 0 1 0-107.80941346h235.06189777a53.90470673 53.90470673 0 0 1 0 107.80941346zM231.85989631 745.71459589a53.91596503 53.91596503 0 0 1-76.24115887-76.24115887l166.25121187-166.25121188a53.91596503 53.91596503 0 1 1 76.24115888 76.24115888zM702.13005069 275.44444152000005a53.91596503 53.91596503 0 0 1-76.24115888-76.24115888L792.14010369 32.95207076999998a53.91596503 53.91596503 0 1 1 76.24115887 76.24115887zM512 893.33333333a53.90470673 53.90470673 0 0 1-53.90470673-53.90470673v-235.11818925a53.90470673 53.90470673 0 0 1 107.80941346 0V839.4286266A53.90470673 53.90470673 0 0 1 512 893.33333333zM512 228.26093605000005a53.90470673 53.90470673 0 0 1-53.90470673-53.96099822v-235.06189777a53.90470673 53.90470673 0 0 1 107.80941346 0V174.29993782999998a53.90470673 53.90470673 0 0 1-53.90470673 53.96099822zM702.13005069 503.22222514l166.25121187 166.25121188a53.91596503 53.91596503 0 1 1-76.24115887 76.24115887L625.88889181 579.4633840199999a53.91596503 53.91596503 0 1 1 76.24115888-76.24115888zM321.86994931 275.44444152000005L155.61873744 109.19322964000003a53.91596503 53.91596503 0 1 1 76.24115887-76.24115887l166.25121188 166.25121187a53.91596503 53.91596503 0 1 1-76.24115888 76.24115888z"  horiz-adv-x="1024" />

    
    <glyph glyph-name="xitongpeizhi" unicode="&#58967;" d="M598.528 519.168h-32.768V586.752c0 94.208-72.704 168.448-165.376 168.448S234.496 680.96 234.496 586.752v-67.584h-32.768c-36.352 0-66.048-30.208-66.048-67.584v-336.384c0-37.376 29.696-67.584 66.048-67.584h323.584c-23.04 39.936-36.864 86.016-36.864 135.68 0 116.736 73.216 216.064 176.64 254.464v13.824c-0.512 37.888-30.208 67.584-66.56 67.584z m-96.256 0H296.96V586.752c0 56.832 46.592 103.936 102.4 103.936s102.4-47.104 102.4-103.936v-67.584h0.512zM916.48 145.92l-44.032 31.744c0 6.144 1.536 12.288 1.536 19.968s0 13.824-1.536 19.968l39.936 33.28c3.584 3.584 3.584 7.68 1.536 12.288l-37.888 69.12c-1.536 2.048-5.632 3.584-11.264 2.048l-47.616-19.968c-9.216 7.68-20.992 13.824-32.256 19.968l-7.68 51.712c1.536 6.144-3.584 9.728-7.68 9.728h-76.288c-3.584 0-9.216-3.584-9.216-7.68l-7.68-53.248c-11.264-3.584-20.992-12.288-32.256-19.968l-45.568 19.968c-5.632 2.048-9.216 0-13.312-3.584l-37.888-69.12c-1.536-2.048 0-7.68 3.584-12.288l39.936-31.744c0-6.144-1.536-12.288-1.536-19.968s0-13.824 1.536-19.968l-39.936-33.28c-3.584-3.584-3.584-7.68-1.536-12.288l37.888-69.12c1.536-2.048 5.632-3.584 11.264-2.048l47.616 19.968c9.216-7.68 20.992-13.824 32.256-19.968l7.68-51.712c0-3.584 3.584-7.68 9.216-7.68h76.288c3.584 0 9.216 3.584 9.216 7.68L788.48 61.44c11.264 6.144 23.04 12.288 32.256 19.968l47.616-19.968c3.584-2.048 9.216 0 11.264 3.584l37.888 69.12c2.56 3.584 2.56 9.728-1.024 11.776z m-184.832-17.92c-36.352 0-66.048 31.744-66.048 69.12 0 37.888 30.208 69.12 66.048 69.12 36.352 0 66.048-31.744 66.048-69.12 1.024-37.376-29.696-69.12-66.048-69.12z"  horiz-adv-x="1024" />

    
    <glyph glyph-name="guanli" unicode="&#59116;" d="M844.526 461.997H803.1a300.823 300.823 0 0 1-28.125 69.238l37.207 37.246c24.793 24.825 24.778 65.043-0.027 89.852l-22.476 22.488a63.495 63.495 0 0 1-44.911 18.594 63.476 63.476 0 0 1-44.898-18.621l-36.512-36.567a298.58 298.58 0 0 1-71.98 30.106v42.668a63.487 63.487 0 0 1-63.488 63.488h-31.758a63.49 63.49 0 0 1-63.489-63.488v-42.653a299.038 299.038 0 0 1-71.925-30.066L324.1 680.888a63.447 63.447 0 0 1-89.785-0.055l-22.402-22.461c-24.773-24.832-24.758-65.031 0.027-89.852l37.231-37.273a299.223 299.223 0 0 1-28.125-69.234h-41.438c-35.062 0-63.488-28.426-63.488-63.489v-31.746a63.487 63.487 0 0 1 63.488-63.488h41.914a299.747 299.747 0 0 1 29.125-69.738l-38.75-38.789c-24.773-24.809-24.785-64.993-0.027-89.813l22.445-22.5a63.523 63.523 0 0 1 89.883-0.043l38.992 38.996a297.578 297.578 0 0 1 69.496-28.617v-40.676a63.489 63.489 0 0 1 63.489-63.488h31.742a63.487 63.487 0 0 1 63.488 63.488v40.676l4.453 1.242c18.801 5.434 25.028 29.039 11.7 43.348l-35.09 37.668a25.914 25.914 0 0 1-23.606 8.004 204.091 204.091 0 0 0-70.75-0.563c-87.383 14.488-156.277 86.715-166.613 174.684-15.414 131.14 94.906 241.035 226.168 224.894 87.734-10.785 159.551-79.746 173.711-167.019 3.961-24.399 3.469-48.129-0.723-70.547a25.949 25.949 0 0 1 8.231-23.895l38.843-35.293c14.336-13.023 37.547-6.746 43.09 11.825 0.602 2.019 1.192 4.07 1.75 6.101h41.914a63.493 63.493 0 0 1 63.489 63.488v31.786a63.43 63.43 0 0 1-63.446 63.488z m0 0M888.136 100.118L670.308 297.489l0.152 0.164c-1.832 1.735-3.156 3.004-3.863 3.742-11.633 11.918-7.715 22.567-4.071 29.723 25.793 49.902 3.36 120.996-33.504 157.871-36.879 36.879-72.488 43.598-90.714 44.731a75.46 75.46 0 0 1-30.801-4.864c-17.625-6.578-21.844-29.816-8.508-43.101l46.887-46.707a26.454 26.454 0 0 0 7.347-23.418l-8.277-45.586a26.404 26.404 0 0 0-21.297-21.274l-45.672-8.207a26.408 26.408 0 0 0-23.305 7.278l-46.558 46.394c-13.559 13.504-36.988 8.699-43.375-9.336-3.66-10.324-5.231-20.66-4.766-29.519 0.981-18.938 11.633-59.313 44.864-90.578 31.964-30.282 91.546-62.11 157.722-33.926 7.989 3.355 18.5 7.152 29.723-4.07C594.206 224.88 796.6 8.282 796.6 8.282c23.418-27.195 66.739-25.23 91.969-0.133 25.071 25.516 26.613 68.551-0.433 91.969z m-48.172-68.527c-13.746 0-24.887 11.144-24.887 24.89s11.141 24.891 24.887 24.891 24.89-11.145 24.89-24.891c0-13.746-11.144-24.89-24.89-24.89z m0 0"  horiz-adv-x="1024" />

    
    <glyph glyph-name="exit" unicode="&#59041;" d="M657.28 675.52a32 32 0 0 0 29.44 56.96A388.16 388.16 0 0 0 512 0a388.16 388.16 0 0 0-174.72 732.48 32 32 0 1 0 29.44-56.96 322.56 322.56 0 1 1 465.28-288 323.52 323.52 0 0 1-174.72 288zM480 800a32 32 0 0 0 64 0v-320a32 32 0 0 0-64 0z"  horiz-adv-x="1024" />

    
    <glyph glyph-name="wenjianjia2" unicode="&#59366;" d="M218.88 499.626667A76.8 76.8 0 0 0 289.92 554.666667H810.666667a85.333333 85.333333 0 0 1-85.333334 85.333333H405.333333l-32 58.453333A42.666667 42.666667 0 0 1 333.866667 725.333333H170.666667a85.333333 85.333333 0 0 1-85.333334-85.333333v-448a85.333333 85.333333 0 0 1 49.066667-77.013333zM800.64 152.746667a83.84 83.84 0 0 1 10.026667 28.16zM768 42.666667H170.666667l90.88 414.293333A76.8 76.8 0 0 0 332.586667 512h529.92c53.333333 0 90.026667-59.946667 71.04-115.626667l-94.08-298.666666A77.013333 77.013333 0 0 0 768 42.666667z"  horiz-adv-x="1024" />

    
    <glyph glyph-name="chaxun" unicode="&#59209;" d="M942.506667 18.346667l-179.2 179.2c52.48 66.133333 83.626667 149.76 83.626666 240.64 0 215.04-174.08 389.546667-389.12 389.546666-215.466667 0-389.546667-174.08-389.546666-389.12 0-215.04 174.08-389.546667 389.12-389.546666 91.306667 0 174.933333 31.573333 241.066666 84.053333l179.2-179.2c17.92-17.92 46.506667-17.92 64.426667 0 17.92 17.493333 17.92 46.506667 0.426667 64.426667z m-485.12 128c-160.853333 0-291.84 130.986667-291.84 291.84S296.533333 730.026667 457.386667 730.026667s291.84-130.986667 291.84-291.84-130.56-291.84-291.84-291.84z"  horiz-adv-x="1024" />

    
    <glyph glyph-name="riqi" unicode="&#59025;" d="M751.104 291.84c31.744 0 59.392 27.648 59.392 59.392 0 32.256-27.136 59.392-59.392 59.392s-59.392-27.648-59.392-59.392c0-32.256 27.136-59.392 59.392-59.392z m-424.96 338.432c23.04 0 40.96 18.432 40.96 36.352V859.136c0 18.432-18.432 36.864-40.96 36.864-19.968 0-36.352-15.872-36.352-35.84V666.624c0-17.92 13.824-36.352 36.352-36.352z m378.88 0c23.04 0 40.96 18.432 40.96 36.352V859.136c0 18.432-18.432 36.864-40.96 36.864-19.968 0-36.352-15.872-36.352-35.84V666.624c0-17.92 13.824-36.352 36.352-36.352z m-86.528 164.864H413.184v-59.392h205.312V795.136z m-100.352-736.768c31.744 0 59.392 27.648 59.392 59.392 0 32.256-27.648 59.392-59.392 59.392-31.744 0-59.392-27.648-59.392-59.392 0-32.256 27.136-59.392 59.392-59.392z m-232.96 0c31.744 0 59.392 27.648 59.392 59.392 0 32.256-27.648 59.392-59.392 59.392s-59.392-27.648-59.392-59.392c0-32.256 27.648-59.392 59.392-59.392z m232.96 233.472c31.744 0 59.392 27.648 59.392 59.392 0 32.256-27.648 59.392-59.392 59.392-31.744 0-59.392-27.648-59.392-59.392 0-32.256 27.136-59.392 59.392-59.392z m360.448 503.296h-77.824v-59.392h77.824c23.04 0 45.568-18.432 45.568-45.568v-151.04H116.224V690.176c0 23.04 18.432 45.568 45.568 45.568h82.432V795.136H166.4c-59.392 0-109.568-50.176-109.568-110.08v-645.632c0-59.392 45.568-110.08 104.96-110.08h716.8c59.392 0 109.568 50.176 109.568 110.08V685.568c0 59.392-50.176 109.568-109.568 109.568z m41.472-759.808c0-25.088-20.48-45.568-45.568-45.568h-716.8c-25.088 0-45.568 20.48-45.568 45.568V483.84h808.448v-448.512h-0.512zM285.184 291.84c31.744 0 59.392 27.648 59.392 59.392 0 32.256-27.648 59.392-59.392 59.392s-59.392-27.648-59.392-59.392c0-32.256 27.648-59.392 59.392-59.392z"  horiz-adv-x="1024" />

    
    <glyph glyph-name="baogao" unicode="&#58962;" d="M704.9 486.7c-79.4 0-144.3 65-144.3 144.3V837.4H193.9c-50 0-90.9-40.9-90.9-90.9v-733.2c0-50 40.9-90.9 90.9-90.9h611.2c50 0 90.9 40.9 90.9 90.9V486.7H704.9z m-501.5-105h333.4c13.2 0 23.8-15.1 23.8-33.7s-10.7-33.7-23.8-33.7H203.4c-13.1 0-23.8 15.1-23.8 33.7s10.6 33.7 23.8 33.7z m481.9-235.2h-472c-18.6 0-33.7 15.1-33.7 33.7s15.1 33.7 33.7 33.7h472c18.6 0 33.7-15.1 33.7-33.7s-15.1-33.7-33.7-33.7zM652 657.3V837.4l271-271H742.9c-50 0.1-90.9 41-90.9 90.9z"  horiz-adv-x="1024" />

    
    <glyph glyph-name="gerenzhongxin_xuanzhong" unicode="&#58908;" d="M133-43.3c-13.8 0-25 11.2-25 25 0 51.3 10.1 101.1 29.9 148 19.1 45.3 46.6 85.9 81.5 120.8 34.9 34.9 75.6 62.3 120.8 81.5 46.9 19.8 96.7 29.9 148 29.9 10.7 0 21.5-0.4 32.1-1.3 13.8-1.1 24-13.2 22.8-27-1.1-13.8-13.2-24-27-22.8-9.2 0.8-18.6 1.2-27.9 1.2-182 0-330.1-148.1-330.1-330.1-0.1-14-11.3-25.2-25.1-25.2zM846.8 199.7h-353v30c0 11 9 20 20 20h313c11 0 20-9 20-20v-30zM846.8 83.7h-353v30c0 11 9 20 20 20h313c11 0 20-9 20-20v-30zM846.8-32.3h-353v30c0 11 9 20 20 20h313c11 0 20-9 20-20v-30zM707.8 760.3C658.1 810 591.9 837.4 521.6 837.4S385.1 810 335.4 760.3s-77.1-115.9-77.1-186.2 27.4-136.5 77.1-186.2 115.9-77.1 186.2-77.1c70.4 0 136.5 27.4 186.3 77.2 49.7 49.7 77 115.8 77 186.1s-27.4 136.5-77.1 186.2z"  horiz-adv-x="1024" />

    
    <glyph glyph-name="shujuku" unicode="&#59058;" d="M172.8 594.8a339.2 191.2 0 1 1 678.4 0 339.2 191.2 0 1 1-678.4 0ZM819.4 236c-54-65.2-171.4-110.2-307.4-110.2S258.8 170.8 204.6 236c-4.4 5.4-12.8 4.6-16.2-1.4-10.2-18.2-15.6-37.4-15.6-57.4 0-105.6 151.8-191.2 339.2-191.2s339.2 85.6 339.2 191.2c0 20-5.4 39.4-15.6 57.4-3.4 6-11.8 6.8-16.2 1.4zM819.4 444.6c-54-65.2-171.4-110.2-307.4-110.2s-253.2 45.2-307.4 110.2c-4.4 5.4-12.8 4.6-16.2-1.4-10.2-18.2-15.6-37.4-15.6-57.4 0-105.6 151.8-191.2 339.2-191.2s339.2 85.6 339.2 191.2c0 20-5.4 39.4-15.6 57.4-3.4 6.2-11.8 6.8-16.2 1.4z"  horiz-adv-x="1024" />

    
    <glyph glyph-name="shijian" unicode="&#59230;" d="M512 896C229.6832 896 0 666.3168 0 384s229.6832-512 512-512 512 229.6832 512 512S794.3168 896 512 896z m0-938.7008c-235.3152 0-426.7008 191.488-426.7008 426.7008S276.6848 810.7008 512 810.7008c235.3152 0 426.7008-191.488 426.7008-426.7008-0.1024-235.3152-191.3856-426.7008-426.7008-426.7008z m198.3488 301.1584l-176.9472 102.2976V639.8976c0 23.4496-19.0464 42.7008-42.7008 42.7008-23.4496 0-42.7008-19.0464-42.7008-42.7008v-298.5984c0-15.7696 19.6608-29.0816 32.5632-36.352 3.584-5.3248 13.312-10.1376 19.2512-13.6192l175.9232-106.5984c20.3776-11.776 42.5984-4.7104 54.272 15.6672 11.6736 20.2752 0.8192 46.2848-19.6608 58.0608z m0 0"  horiz-adv-x="1024" />

    
    <glyph glyph-name="mingling" unicode="&#58969;" d="M781.592178 314.855111h-69.142045V453.143467h69.142045c53.444978 0 103.693511 20.814222 141.487644 58.609066 37.794844 37.793422 58.609067 88.040533 58.609067 141.484089 0 53.445689-20.814933 103.693511-58.609067 141.487645C885.284978 832.519111 835.037156 853.333333 781.592178 853.333333c-53.443556 0-103.689956-20.814222-141.484089-58.609066-37.794133-37.794844-58.607644-88.042667-58.607645-141.487645v-69.142044h-138.289777v69.142044c0 53.444267-20.814222 103.6928-58.607645 141.487645C346.8096 832.519111 296.5632 853.333333 243.118933 853.333333c-53.445689 0-103.693511-20.814222-141.487644-58.609066C63.837156 756.929422 43.022222 706.6816 43.022222 653.236622c0-53.443556 20.814933-103.690667 58.609067-141.4848 37.794844-37.794133 88.042667-58.608356 141.487644-58.608355h69.142045v-138.288356h-69.142045c-53.444978 0-103.693511-20.814222-141.487644-58.608355C63.837156 218.453333 43.022222 168.206933 43.022222 114.763378c0-53.444978 20.814933-103.693511 58.609067-141.487645C139.425422-64.5184 189.673244-85.333333 243.118933-85.333333c53.444267 0 103.690667 20.814933 141.483378 58.609777 37.793422 37.794844 58.607644 88.042667 58.607645 141.487645v69.140622h138.289066v-69.140622c0-53.444978 20.814222-103.693511 58.607645-141.487645 37.793422-37.794844 88.039822-58.609067 141.484089-58.609066 53.445689 0 103.693511 20.814933 141.487644 58.609066 37.794844 37.794133 58.609067 88.041956 58.609067 141.487645 0 53.443556-20.814933 103.689956-58.609778 141.483378-37.792711 37.793422-88.040533 58.607644-141.485511 58.607644z m69.140622-200.091733c0-38.125511-31.016533-69.142756-69.141333-69.142756-38.1248 0-69.142044 31.017244-69.142045 69.142756v69.140622h69.142045c38.1248 0 69.141333-31.015822 69.141333-69.140622z m-138.282667 538.473244c0 38.126933 31.016533 69.1456 69.142045 69.1456 38.1248 0 69.141333-31.018667 69.141333-69.1456 0-38.1248-31.016533-69.142044-69.141333-69.142044h-69.142045v69.142044zM581.500444 453.143467v-138.288356h-138.289777V453.143467h138.289777zM312.260978 653.236622v-69.142044h-69.142045c-38.126933 0-69.146311 31.017244-69.146311 69.142044 0 38.126933 31.018667 69.1456 69.146311 69.1456 38.125511 0 69.142044-31.018667 69.142045-69.1456z m0-469.332622v-69.140622c0-38.125511-31.016533-69.142756-69.142045-69.142756-38.126933 0-69.146311 31.017244-69.146311 69.142756 0 38.124089 31.018667 69.140622 69.146311 69.140622h69.142045z"  horiz-adv-x="1024" />

    
    <glyph glyph-name="jiankong" unicode="&#58970;" d="M512 853.333333c-214.040889 0-387.555556-173.477689-387.555556-387.472355s173.514667-387.472356 387.555556-387.472356 387.555556 173.477689 387.555556 387.472356S726.040889 853.333333 512 853.333333z m0-678.077155c-121.848889 0-220.626489 98.756978-220.626489 220.579555S390.151111 616.414578 512 616.414578s220.626489-98.756978 220.626489-220.579556S633.848889 175.256178 512 175.256178z m0 336.120889c-66.404267 0-120.235378-53.819733-120.235378-120.209778S445.595733 270.957511 512 270.957511s120.235378 53.819733 120.235378 120.209778S578.404267 511.377067 512 511.377067zM791.963022 148.083911c-72.324978-63.692089-171.256178-103.067733-280.241778-103.067733-109.001244 0-207.967289 39.409778-280.253155 103.067733l-65.905778-145.033955-0.811378-1.982578c-5.988267-16.649244-2.798933-33.783467 8.969245-48.352711 18.715022-23.103289 58.614756-38.048 101.683911-38.048h472.623644c36.822044 0 83.256889 12.528356 104.0768 40.502755 11.084089 14.8288 13.097244 31.857778 5.765689 47.880534l-65.9072 145.033955z m0 0"  horiz-adv-x="1024" />

    
    <glyph glyph-name="chushihua" unicode="&#58904;" d="M803.719 662.571c-65.188 58.157-145.882 95.926-232.174 108.69V880.528L366.299 720.825 571.545 561.12v97.263c181.954-35.706 300.594-212.65 265.012-395.217-35.584-182.55-211.943-301.608-393.896-265.903-181.938 35.715-300.596 212.66-264.995 395.227 11.453 58.821 38.363 113.516 77.934 158.419l-83.774 74.454C7.583 439.997 24.177 156.146 208.912-8.657c184.735-164.81 467.651-148.146 631.912 37.22 164.24 185.345 147.629 469.206-37.105 634.008zM506.48 131.999c107.397-0.246 194.667 86.911 194.911 194.674v0.892c0.246 107.764-86.622 195.333-194.037 195.568-107.395 0.245-194.666-86.92-194.911-194.693v-0.875c-0.244-107.762 86.625-195.322 194.037-195.566z"  horiz-adv-x="1024" />

    
    <glyph glyph-name="shijian2" unicode="&#60338;" d="M517.12-122.88c-274.28864 0-496.64 222.36672-496.64 496.64512S242.83136 870.4 517.12 870.4c274.29376 0 496.64-222.3616 496.64-496.63488S791.41376-122.88 517.12-122.88z m0 897.15712c-220.8512 0-400.512-179.66592-400.512-400.512 0-220.8512 179.66592-400.51712 400.512-400.51712 220.84608 0 400.51712 179.66592 400.51712 400.51712 0 220.84608-179.67104 400.512-400.51712 400.512z m224.29184-448.57344H469.05856V630.0928A48.05632 48.05632 0 0 0 517.12 678.14912a48.0512 48.0512 0 0 0 48.06144-48.05632v-208.26624h176.22528c26.53184 0 48.06144-21.51424 48.06144-48.06144 0.00512-26.55232-21.52448-48.06144-48.05632-48.06144z"  horiz-adv-x="1024" />

    
    <glyph glyph-name="zhuce2" unicode="&#59059;" d="M445.741176 118.964706c0 72.282353 27.105882 138.541176 69.270589 189.741176h-135.529412C195.764706 308.705882 60.235294 182.211765 60.235294-4.517647v-21.082353c0-96.376471 147.576471-96.376471 331.294118-96.376471h186.729412c-78.305882 51.2-132.517647 141.552941-132.517648 240.941177z m33.129412 240.941176c144.564706 0 262.023529 120.470588 262.02353 268.047059C743.905882 775.529412 626.447059 896 478.870588 896 334.305882 896 216.847059 775.529412 216.847059 627.952941s117.458824-268.047059 262.023529-268.047059z m466.82353-153.6c-12.047059 30.117647-30.117647 54.211765-51.2 75.294118s-45.176471 39.152941-75.294118 51.2c-30.117647 12.047059-60.235294 18.070588-90.352941 18.070588-33.129412 0-63.247059-6.023529-90.352941-18.070588-30.117647-12.047059-54.211765-30.117647-75.294118-51.2-21.082353-18.070588-39.152941-45.176471-51.2-75.294118-12.047059-27.105882-18.070588-60.235294-18.070588-93.364706s6.023529-63.247059 18.070588-93.364705c12.047059-30.117647 30.117647-54.211765 51.2-78.305883 21.082353-21.082353 45.176471-39.152941 75.294118-51.2 30.117647-12.047059 60.235294-18.070588 90.352941-18.070588 33.129412 0 63.247059 6.023529 90.352941 18.070588 30.117647 12.047059 54.211765 30.117647 75.294118 51.2s39.152941 48.188235 51.2 78.305883c12.047059 30.117647 18.070588 60.235294 18.070588 93.364705s-6.023529 66.258824-18.070588 93.364706z m-60.235294-93.364706c0-12.047059-3.011765-18.070588-12.047059-24.094117-9.035294-6.023529-18.070588-6.023529-27.105883-6.02353h-84.329411v-84.329411c0-12.047059-3.011765-21.082353-9.035295-30.117647-6.023529-9.035294-15.058824-12.047059-27.105882-12.047059-9.035294 0-18.070588 3.011765-24.094118 12.047059-6.023529 9.035294-9.035294 18.070588-9.035294 27.105882v84.329412h-75.294117c-12.047059 0-21.082353 3.011765-27.105883 9.035294-9.035294 6.023529-12.047059 15.058824-12.047058 24.094117 0 12.047059 3.011765 21.082353 12.047058 27.105883 9.035294 9.035294 15.058824 12.047059 27.105883 12.047059H692.705882V233.411765c0 12.047059 3.011765 21.082353 9.035294 27.105882 6.023529 9.035294 15.058824 12.047059 24.094118 12.047059 12.047059 0 21.082353-3.011765 27.105882-12.047059 6.023529-9.035294 9.035294-18.070588 9.035295-27.105882v-81.317647h84.329411c21.082353 0 39.152941-18.070588 39.152942-39.152942z"  horiz-adv-x="1024" />

    
    <glyph glyph-name="jiedian" unicode="&#58881;" d="M315.733333 384c0-108.088889 88.177778-196.266667 196.266667-196.266667s196.266667 88.177778 196.266667 196.266667-88.177778 196.266667-196.266667 196.266667-196.266667-88.177778-196.266667-196.266667zM967.111111 384c0 54.044444-8.533333 108.088889-28.444444 156.444444-5.688889 17.066667-25.6 25.6-42.666667 17.066667-17.066667-5.688889-25.6-25.6-19.911111-39.822222 17.066667-42.666667 22.755556-88.177778 22.755555-136.533333 0-22.755556-2.844444-45.511111-5.688888-65.422223-34.133333-2.844444-59.733333-31.288889-59.733334-65.422222 0-19.911111 8.533333-36.977778 22.755556-48.355555-65.422222-125.155556-196.266667-213.333333-347.022222-213.333334-216.177778 0-389.688889 173.511111-389.688889 389.688889 0 22.755556 2.844444 45.511111 5.688889 65.422222 34.133333 2.844444 59.733333 31.288889 59.733333 65.422223 0 19.911111-8.533333 36.977778-22.755556 48.355555 68.266667 130.844444 199.111111 216.177778 349.866667 216.177778 34.133333 0 68.266667-5.688889 99.555556-14.222222 8.533333-34.133333 42.666667-56.888889 76.8-51.2 28.444444 5.688889 51.2 31.288889 51.2 62.577777C739.555556 810.666667 711.111111 839.111111 674.133333 839.111111c-17.066667 0-31.288889-5.688889-42.666666-17.066667-39.822222 11.377778-79.644444 17.066667-119.466667 17.066667-182.044444 0-341.333333-108.088889-412.444444-264.533333-25.6-8.533333-42.666667-34.133333-42.666667-59.733334 0-11.377778 2.844444-25.6 11.377778-34.133333-8.533333-31.288889-11.377778-65.422222-11.377778-96.711111 0-250.311111 204.8-455.111111 455.111111-455.111111 182.044444 0 341.333333 108.088889 412.444444 264.533333 25.6 8.533333 42.666667 34.133333 42.666667 59.733334 0 11.377778-2.844444 25.6-11.377778 34.133333 8.533333 31.288889 11.377778 62.577778 11.377778 96.711111z"  horiz-adv-x="1024" />

    
    <glyph glyph-name="chakanxiangqing" unicode="&#58949;" d="M400.105196 214.87198c0 162.738625 121.685999 293.95984 269.99381 307.846699 81.88127 7.679369 110.998877 4.927595 153.331398-25.277922V621.174587h-276.745255c-81.593294 0-172.689807 101.911624-172.689807 191.216285V895.968003h-224.941512C67.460536 895.968003 1.257977 823.621949 1.257977 734.445278V132.830723c0-89.176671 66.170562-161.490727 147.795853-161.490728H536.318001c-81.27332 50.907816-136.212805 134.004986-136.212805 243.531985zM76.451797 613.047255c0 18.238501 14.654796 33.21327 32.541325 33.21327h214.574365a32.957291 32.957291 0 0 0 32.541325-33.21327v-8.191327c0-18.238501-14.654796-33.21327-32.541325-33.21327H108.961125a32.957291 32.957291 0 0 0-32.541326 33.21327v8.191327h0.031998z m0-149.971674c0 18.238501 14.71879 33.21327 32.701312 33.21327h301.831193c18.014519 0 32.73331-14.942772 32.73331-33.21327v-8.191327c0-18.238501-14.71879-33.181273-32.73331-33.181273H109.153109a33.021286 33.021286 0 0 0-32.701312 33.181273v8.191327z m224.589541-158.163001c0-18.206504-15.45473-33.21327-34.301181-33.21327H110.752977c-18.878448 0-34.301181 14.942772-34.30118 33.21327v8.191327c0 18.206504 15.45473 33.181273 34.30118 33.181273h155.98718c18.878448 0 34.301181-14.910775 34.301181-33.181273v-8.191327zM1016.342549-76.304089l-106.007287 115.414515c-1.34389-1.535874-2.943758-2.911761-4.287648-4.447635 2.815769 3.199737 4.127661 4.8636 4.25565 4.511629l0.031998-0.063994a261.322523 261.322523 0 0 1 62.77884 170.09802c0 144.660111-117.590336 262.410433-262.058462 262.410433-144.532121 0-261.994467-117.750322-261.994467-262.410433 0-144.7881 117.430349-262.538423 261.994467-262.538423a260.458594 260.458594 0 0 1 148.403803 46.36419l-1.343889-1.119908 113.654659-116.118457c4.223653-4.38364 14.014848-5.375558 22.878119-0.799934 4.8636 2.463798 17.502562 12.510972 21.726215 16.894611a22.974112 22.974112 0 0 1-0.031998 31.805386z m-305.286909 97.879956c-103.255514 0-187.344603 84.185081-187.344603 187.632579 0 103.415501 84.121086 187.536587 187.344603 187.536587a187.632579 187.632579 0 0 0 187.440595-187.536587c0-103.447498-84.057092-187.632579-187.440595-187.632579zM577.850588 676.818014h245.611814V734.445278c0 89.176671-66.202559 161.522725-147.827851 161.522725h-245.611813v-57.627264c0-89.208668 66.202559-161.522725 147.82785-161.522725z"  horiz-adv-x="1024" />

    
    <glyph glyph-name="neicun" unicode="&#58950;" d="M938.321753 462.774508h-106.666966c-9.428898 0-18.472775-4.151254-25.140996-11.536268-6.668221-7.385014-10.413976-17.40373-10.413976-27.848426v-157.536729c0-10.444696 3.747803-20.463411 10.413976-27.850473 6.668221-7.385014 15.712099-11.534221 25.140996-11.534221h106.666966v-275.688763c0-43.503181-31.83789-78.769388-71.111993-78.769388H156.106215C116.83416-127.98976 84.99627-92.723553 84.99627-49.220372V817.230612C84.99627 860.733793 116.83416 896 156.106215 896h532.474675l249.740863-316.924831v-116.300661zM191.661187 147.699003c-9.428898 0-18.472775-4.149207-25.140996-11.534221-6.668221-7.387062-10.413976-17.40373-10.413976-27.848425v-118.154083c0-10.444696 3.747803-20.461363 10.413976-27.848425 6.668221-7.385014 15.712099-11.534221 25.140996-11.534221H689.436946c19.636028 0 35.554972 17.633104 35.554972 39.382646v118.154083c0 10.444696-3.747803 20.461363-10.413976 27.848425-6.668221 7.385014-15.712099 11.534221-25.140996 11.534221H191.661187z m0 669.531609c-9.428898 0-18.472775-4.149207-25.140996-11.534221-6.668221-7.387062-10.413976-17.40373-10.413976-27.848425v-236.306117c0-10.444696 3.747803-20.463411 10.413976-27.848426 6.668221-7.387062 15.712099-11.536269 25.140996-11.536269h35.554973c9.430946 0 18.472775 4.149207 25.143044 11.536269 6.666173 7.385014 10.413976 17.40373 10.413976 27.848426V777.847966c0 21.749543-15.918945 39.382646-35.55702 39.382646h-35.552925z m213.331883 0c-9.428898 0-18.472775-4.149207-25.140997-11.534221-6.668221-7.387062-10.413976-17.40373-10.413975-27.848425v-236.306117c0-10.444696 3.745755-20.463411 10.413975-27.848426 6.668221-7.387062 15.712099-11.536269 25.140997-11.536269h35.554973c9.430946 0 18.472775 4.149207 25.140996 11.536269 6.668221 7.385014 10.413976 17.40373 10.413976 27.848426V777.847966c0 10.444696-3.745755 20.461363-10.413976 27.848425-6.668221 7.385014-15.710051 11.534221-25.140996 11.534221H404.99307z m213.331883 0c-9.430946 0-18.472775-4.149207-25.140997-11.534221-6.668221-7.387062-10.413976-17.40373-10.413976-27.848425v-236.306117c0-10.444696 3.745755-20.463411 10.413976-27.848426 6.666173-7.387062 15.710051-11.536269 25.140997-11.536269h35.552924c9.430946 0 18.474823 4.149207 25.143045 11.536269 6.668221 7.385014 10.413976 17.40373 10.413976 27.848426V777.847966c0 21.749543-15.918945 39.382646-35.554973 39.382646h-35.554972z"  horiz-adv-x="1024" />

    
    <glyph glyph-name="denglu1" unicode="&#58882;" d="M512 305.25c-142.5 0-258.75 116.25-258.75 258.75S369.5 826.5 512 826.5s258.75-116.25 258.75-258.75S654.5 305.25 512 305.25z m0 446.25c-101.25 0-183.75-82.5-183.75-183.75S410.75 384 512 384s183.75 82.5 183.75 183.75S613.25 751.5 512 751.5zM170.75-54.75c-18.75 0-37.5 15-37.5 37.5v15c0 210 172.5 382.5 382.5 382.5 22.5 0 37.5-15 37.5-37.5s-15-37.5-37.5-37.5c-168.75 0-307.5-138.75-307.5-307.5v-11.25c0-22.5-18.75-41.25-37.5-41.25zM853.25-51c-22.5 0-37.5 15-37.5 37.5v11.25c0 168.75-138.75 307.5-307.5 307.5-22.5 0-37.5 15-37.5 37.5s15 37.5 37.5 37.5c210 0 382.5-172.5 382.5-382.5v-11.25c0-22.5-15-37.5-37.5-37.5z"  horiz-adv-x="1024" />

    
    <glyph glyph-name="xiangqing" unicode="&#58996;" d="M586.4 742.2H283.3c-44.1 0-77.1-33.1-77.1-71.6v-573.1c0-38.6 33.1-71.6 77.1-71.6h457.4c44.1 0 77.1 33.1 77.1 71.6V527.3L586.4 742.2zM658 169.1H360.5v71.6h303.1v-71.6H658z m0 143.3H360.5V384h303.1v-71.6H658zM547.8 488.7V687.1l209.4-198.4H547.8z m0 0"  horiz-adv-x="1024" />

    
    <glyph glyph-name="caiji" unicode="&#58885;" d="M994.82492 585.035729a28.662398 28.662398 0 0 1-11.658316-2.274794l-405.823161-210.418399h-0.227479a57.609145 57.609145 0 0 1-28.548658-48.90806v-424.817686c0-14.615548 12.795713-26.273865 29.003617-26.273865a31.278411 31.278411 0 0 1 13.93311 3.184711c0.454959 0.227479 0.909917 0.454959 1.137397 0.682438l399.226259 211.840145 0.682438 0.227479c18.710177 10.236571 31.278411 29.003617 31.27841 50.500416V558.761864c0 14.615548-13.023193 26.273865-29.003617 26.273865z m-29.742925 113.341586L549.932182 885.024121S525.478151 896 512 896c-13.478151 0-37.704702-10.975879-37.704702-10.975879L58.747395 698.377315s-18.312088-7.563688-18.312087-21.724278c0-15.070507 18.994526-26.273865 18.994525-26.273865l423.850899-223.498461c8.644215-3.867149 18.482697-5.914463 28.776138-5.914464 10.52092 0 20.359402 2.274793 29.003617 6.141943l423.680289 223.725941s17.060951 9.099174 17.060952 26.273864c0.284349 14.388069-16.662862 21.269319-16.662863 21.26932zM446.884036 372.228797L40.833396 582.988414a32.074588 32.074588 0 0 1-11.658316 2.274794c-15.980424 0-29.003617-11.658317-29.003617-26.273865v-419.98375c0-21.496799 12.568234-40.206975 31.27841-50.500416l0.454959-0.227479 399.226259-211.840145a30.197884 30.197884 0 0 1 15.070507-3.867149c15.980424 0 29.003617 11.885796 29.003617 26.273865v424.533337a57.097317 57.097317 0 0 1-28.321179 48.908061z"  horiz-adv-x="1024" />

    
    <glyph glyph-name="jiedian1" unicode="&#59288;" d="M857.9 195.3V415.4H543.4v151h62.9V761.3H417.7v-194.9h62.9v-150.9H166.1v-220.1h-62.9v-188.7h188.7V195.3H229V352.6h251.5v-157.2h-62.9v-188.7h188.7V195.3h-62.9V352.6H795v-157.2h-62.9v-188.7h188.7V195.3h-62.9z m0 0"  horiz-adv-x="1024" />

    
    <glyph glyph-name="jiantou-copy" unicode="&#58883;" d="M640.8453125 388.8684375l-375.770625-375.703125a51.36 51.36 0 1 1 72.75375-72.6853125l412.1146875 411.976875a51.1546875 51.1546875 0 0 1 0 72.8915625L337.8284375 837.2578125a51.36 51.36 0 1 1-72.6853125-72.68625l375.70312501-375.7715625z"  horiz-adv-x="1024" />

    


  </font>
</defs>
</svg>
